<svg width="23" height="22" viewBox="0 0 23 22" fill="none" xmlns="http://www.w3.org/2000/svg">
<path d="M12.4416 1.83301C13.4728 1.83576 13.9962 1.84126 14.4481 1.85409L14.626 1.86051C14.8313 1.86784 15.0339 1.87701 15.2786 1.88801C16.254 1.93384 16.9195 2.08784 17.5034 2.31426C18.1084 2.54709 18.6181 2.86242 19.1277 3.37117C19.5938 3.82941 19.9545 4.38371 20.1846 4.99551C20.4111 5.57942 20.5651 6.24492 20.6109 7.22117C20.6219 7.46501 20.6311 7.66759 20.6384 7.87384L20.6439 8.05168C20.6576 8.50268 20.6631 9.02609 20.665 10.0573L20.6659 10.7412V11.942C20.6681 12.6106 20.6611 13.2792 20.6448 13.9477L20.6393 14.1255C20.632 14.3318 20.6228 14.5343 20.6118 14.7782C20.566 15.7544 20.4101 16.419 20.1846 17.0038C19.9552 17.616 19.5944 18.1704 19.1277 18.6282C18.6694 19.0941 18.1151 19.4548 17.5034 19.6851C16.9195 19.9115 16.254 20.0655 15.2786 20.1113C15.0611 20.1216 14.8436 20.1308 14.626 20.1388L14.4481 20.1443C13.9962 20.1572 13.4728 20.1636 12.4416 20.1654L11.7577 20.1663H10.5578C9.88888 20.1686 9.21996 20.1616 8.55123 20.1453L8.37339 20.1398C8.15579 20.1315 7.93823 20.122 7.72073 20.1113C6.74539 20.0655 6.07989 19.9115 5.49506 19.6851C4.88334 19.4554 4.32926 19.0946 3.87164 18.6282C3.4051 18.1701 3.0441 17.6158 2.81381 17.0038C2.58739 16.4199 2.43339 15.7544 2.38756 14.7782C2.37735 14.5607 2.36818 14.3431 2.36006 14.1255L2.35548 13.9477C2.33858 13.2793 2.33094 12.6106 2.33256 11.942V10.0573C2.33 9.38873 2.33672 8.72011 2.35273 8.05168L2.35914 7.87384C2.36648 7.66759 2.37564 7.46501 2.38664 7.22117C2.43248 6.24492 2.58648 5.58034 2.81289 4.99551C3.04308 4.38309 3.4048 3.82861 3.87256 3.37117C4.33006 2.90503 4.88378 2.54433 5.49506 2.31426C6.07989 2.08784 6.74448 1.93384 7.72073 1.88801C7.96456 1.87701 8.16806 1.86784 8.37339 1.86051L8.55123 1.85501C9.21965 1.83872 9.88827 1.83169 10.5569 1.83392L12.4416 1.83301ZM11.4992 6.41634C10.2837 6.41634 9.11786 6.89923 8.25832 7.75877C7.39878 8.61831 6.91589 9.7841 6.91589 10.9997C6.91589 12.2153 7.39878 13.381 8.25832 14.2406C9.11786 15.1001 10.2837 15.583 11.4992 15.583C12.7148 15.583 13.8806 15.1001 14.7401 14.2406C15.5997 13.381 16.0826 12.2153 16.0826 10.9997C16.0826 9.7841 15.5997 8.61831 14.7401 7.75877C13.8806 6.89923 12.7148 6.41634 11.4992 6.41634ZM11.4992 8.24967C11.8604 8.24961 12.218 8.32069 12.5516 8.45883C12.8853 8.59698 13.1885 8.79949 13.4439 9.05481C13.6993 9.31013 13.9019 9.61325 14.0402 9.94687C14.1784 10.2805 14.2496 10.6381 14.2497 10.9992C14.2497 11.3604 14.1787 11.718 14.0405 12.0516C13.9024 12.3853 13.6999 12.6885 13.4446 12.9439C13.1892 13.1993 12.8861 13.4019 12.5525 13.5402C12.2189 13.6784 11.8613 13.7496 11.5001 13.7497C10.7708 13.7497 10.0713 13.4599 9.5556 12.9442C9.03988 12.4285 8.75014 11.729 8.75014 10.9997C8.75014 10.2703 9.03988 9.57086 9.5556 9.05513C10.0713 8.53941 10.7708 8.24968 11.5001 8.24967M16.3126 5.04134C16.0087 5.04134 15.7173 5.16206 15.5024 5.37695C15.2875 5.59183 15.1668 5.88328 15.1668 6.18717C15.1668 6.49107 15.2875 6.78252 15.5024 6.9974C15.7173 7.21229 16.0087 7.33301 16.3126 7.33301C16.6165 7.33301 16.908 7.21229 17.1229 6.9974C17.3378 6.78252 17.4585 6.49107 17.4585 6.18717C17.4585 5.88328 17.3378 5.59183 17.1229 5.37695C16.908 5.16206 16.6165 5.04134 16.3126 5.04134Z" fill="black"/>
</svg>
