<svg width="26" height="20" viewBox="0 0 26 20" fill="none" xmlns="http://www.w3.org/2000/svg">
<g clip-path="url(#clip0_948_130)">
<path d="M25.5 12.418C25.5 15.9844 23.9609 18.2188 21.1914 18.2188C18.7461 18.2188 17.4492 16.8672 15.0625 12.8828L13.8359 10.8281C13.5117 10.3398 13.2695 9.88281 13.0078 9.46094C12.2227 10.7812 11.168 12.7031 11.168 12.7031C8.55078 17.2578 7.08203 18.2188 5.03906 18.2188C2.19609 18.2188 0.5 15.9805 0.5 12.5195C0.5 6.93359 3.61641 1.65625 7.68359 1.65625C9.64453 1.65625 11.3477 2.62031 13.3398 5.15234C14.7891 3.19531 16.3906 1.65625 18.4414 1.65625C22.3125 1.65625 25.5 6.56641 25.5 12.418ZM11.7266 7.50781C10.0508 5.08203 8.95703 4.36328 7.64844 4.36328C5.23047 4.36328 3.20391 8.50781 3.20391 12.5664C3.20391 14.4609 3.92578 15.5234 5.14062 15.5234C6.32031 15.5234 7.05469 14.7813 9.17188 11.4688C9.17188 11.4688 10.1367 9.94141 11.7266 7.50781ZM21.25 15.5234C22.5078 15.5234 23.082 14.4492 23.082 12.5977C23.082 7.74609 20.9609 3.79219 18.2695 3.79219C16.9727 3.79219 15.8828 4.80469 14.5625 6.83984C14.9297 7.37891 15.3086 7.97266 15.707 8.61328L17.1719 11.0508C19.4648 14.7266 20.043 15.5234 21.25 15.5234Z" fill="black"/>
</g>
<defs>
<clipPath id="clip0_948_130">
<rect width="25" height="20" fill="white" transform="translate(0.5)"/>
</clipPath>
</defs>
</svg>
