<svg width="23" height="22" viewBox="0 0 23 22" fill="none" xmlns="http://www.w3.org/2000/svg">
<g clip-path="url(#clip0_948_125)">
<path fill-rule="evenodd" clip-rule="evenodd" d="M11.5 2C12.355 2 13.232 2.02338 14.082 2.06163L15.086 2.11262L16.047 2.17319L16.947 2.238L17.769 2.306C18.661 2.37855 19.5004 2.78301 20.1395 3.44823C20.7786 4.11345 21.1764 4.99682 21.263 5.94294L21.303 6.3945L21.378 7.36137C21.448 8.36331 21.5 9.45556 21.5 10.5C21.5 11.5444 21.448 12.6367 21.378 13.6386L21.303 14.6055C21.29 14.7606 21.277 14.9104 21.263 15.0571C21.1764 16.0033 20.7784 16.8868 20.1391 17.5521C19.4999 18.2173 18.6602 18.6217 17.768 18.694L16.948 18.7609L16.048 18.8268L15.086 18.8874L14.082 18.9384C13.2218 18.9781 12.361 18.9986 11.5 19C10.639 18.9986 9.77817 18.9781 8.918 18.9384L7.914 18.8874L6.953 18.8268L6.053 18.7609L5.231 18.694C4.33895 18.6215 3.49955 18.217 2.86047 17.5518C2.22139 16.8865 1.82357 16.0032 1.737 15.0571L1.697 14.6055L1.622 13.6386C1.54554 12.5943 1.50484 11.5474 1.5 10.5C1.5 9.45556 1.552 8.36331 1.622 7.36137L1.697 6.3945C1.71 6.23937 1.723 6.08956 1.737 5.94294C1.82354 4.99699 2.22122 4.11375 2.86009 3.44855C3.49897 2.78335 4.33813 2.37878 5.23 2.306L6.051 2.238L6.951 2.17319L7.913 2.11262L8.917 2.06163C9.7775 2.02192 10.6387 2.00138 11.5 2ZM9.5 7.92344V13.0766C9.5 13.5674 10 13.8734 10.4 13.6291L14.6 11.0525C14.6914 10.9966 14.7673 10.9161 14.8201 10.8191C14.8729 10.7221 14.9007 10.612 14.9007 10.5C14.9007 10.388 14.8729 10.2779 14.8201 10.1809C14.7673 10.0839 14.6914 10.0034 14.6 9.9475L10.4 7.372C10.3088 7.31603 10.2053 7.28657 10.0999 7.28659C9.99455 7.28661 9.89106 7.3161 9.79983 7.3721C9.70861 7.4281 9.63287 7.50864 9.58024 7.60561C9.52761 7.70258 9.49993 7.81256 9.5 7.9245V7.92344Z" fill="black"/>
</g>
<defs>
<clipPath id="clip0_948_125">
<rect width="22" height="22" fill="white" transform="translate(0.5)"/>
</clipPath>
</defs>
</svg>
