<svg width="47" height="47" viewBox="0 0 47 47" fill="none" xmlns="http://www.w3.org/2000/svg">
<path d="M14.6858 37.8673H11.0057C5.37072 37.4648 2.84082 33.1331 2.84082 29.2806C2.84082 25.4281 5.37075 21.0773 10.9099 20.694C11.6957 20.6173 12.3857 21.2306 12.4432 22.0356C12.5007 22.8215 11.9066 23.5115 11.1016 23.569C7.38332 23.8373 5.71582 26.6356 5.71582 29.2998C5.71582 31.964 7.38332 34.7623 11.1016 35.0306H14.6858C15.4716 35.0306 16.1233 35.6823 16.1233 36.4681C16.1233 37.254 15.4716 37.8673 14.6858 37.8673Z" fill="#1C1C1C"/>
<path d="M32.3369 37.8671C32.2986 37.8671 32.2795 37.8671 32.2411 37.8671C31.4553 37.8671 30.727 37.2154 30.727 36.4296C30.727 35.6054 31.3403 34.9921 32.1453 34.9921C34.5028 34.9921 36.6112 34.1679 38.2595 32.6921C41.2495 30.0854 41.4411 26.3288 40.6361 23.6838C39.8311 21.0579 37.5886 18.0487 33.6786 17.5696C33.0461 17.4929 32.5478 17.0138 32.4328 16.3813C31.6661 11.7813 29.1937 8.59959 25.437 7.44959C21.5653 6.24209 17.0419 7.43042 14.2244 10.3821C11.4836 13.2379 10.8511 17.2438 12.4419 21.6521C12.7103 22.3996 12.327 23.2237 11.5795 23.4921C10.832 23.7604 10.0078 23.3771 9.73949 22.6296C7.80366 17.2246 8.68534 12.0496 12.1545 8.40792C15.7003 4.68959 21.3928 3.21374 26.2803 4.70874C30.7653 6.08874 33.9278 9.78791 35.0778 14.9246C38.9878 15.8062 42.1311 18.7771 43.377 22.8788C44.7378 27.3446 43.5111 31.9446 40.157 34.8579C38.0295 36.7746 35.2503 37.8671 32.3369 37.8671Z" fill="#1C1C1C"/>
<path d="M23.387 43.5021C19.5345 43.5021 15.9312 41.4513 13.9571 38.1354C13.7462 37.8096 13.5354 37.4263 13.3629 37.0046C12.7112 35.6438 12.3662 34.0913 12.3662 32.4813C12.3662 26.4054 17.3112 21.4604 23.387 21.4604C29.4629 21.4604 34.4079 26.4054 34.4079 32.4813C34.4079 34.1104 34.0629 35.6438 33.3729 37.0621C33.2196 37.4263 33.0088 37.8096 32.7788 38.1738C30.8429 41.4513 27.2395 43.5021 23.387 43.5021ZM23.387 24.3354C18.902 24.3354 15.2412 27.9963 15.2412 32.4813C15.2412 33.6696 15.4904 34.7813 15.9696 35.7971C16.1229 36.1229 16.257 36.3913 16.4103 36.6404C17.867 39.1129 20.5312 40.6271 23.3679 40.6271C26.2045 40.6271 28.8687 39.113 30.3062 36.6788C30.4787 36.3913 30.6321 36.1229 30.7471 35.8546C31.2646 34.8004 31.5137 33.6888 31.5137 32.5004C31.5329 27.9963 27.872 24.3354 23.387 24.3354Z" fill="#1C1C1C"/>
<path d="M22.2941 35.8164C21.9299 35.8164 21.5658 35.6822 21.2783 35.3947L19.3807 33.4972C18.8249 32.9413 18.8249 32.0214 19.3807 31.4655C19.9366 30.9097 20.8566 30.9097 21.4124 31.4655L22.3325 32.3855L25.3991 29.5489C25.9933 29.0122 26.8941 29.0505 27.4308 29.6255C27.9674 30.2005 27.9291 31.1205 27.3541 31.6572L23.2716 35.433C22.9841 35.6822 22.6391 35.8164 22.2941 35.8164Z" fill="#1C1C1C"/>
</svg>
