<svg width="140" height="140" viewBox="0 0 140 140" fill="none" xmlns="http://www.w3.org/2000/svg">
<path fill-rule="evenodd" clip-rule="evenodd" d="M69.9989 139.99C82.6437 139.991 95.0526 136.567 105.907 130.081C116.762 123.595 125.657 114.29 131.647 103.154C137.638 92.0183 140.499 79.4677 139.929 66.8358C139.358 54.2039 135.376 41.9625 128.406 31.4122L72.7598 93.2412C70.1606 96.1298 66.5743 97.9409 62.7068 98.318C58.8393 98.6951 54.9707 97.6109 51.8624 95.2788L26.4464 76.2169C24.7963 74.9793 23.7054 73.1369 23.4137 71.0949C23.122 69.053 23.6534 66.9789 24.891 65.3287C26.1286 63.6786 27.971 62.5877 30.0129 62.296C32.0548 62.0043 34.129 62.5357 35.7791 63.7733L61.1951 82.8353L118.327 19.3653C110.05 11.4645 99.9629 5.71316 88.9482 2.61488C77.9334 -0.483405 66.3271 -0.834154 55.1454 1.59334C43.9637 4.02083 33.5476 9.15254 24.8091 16.5392C16.0706 23.9258 9.27617 33.342 5.02075 43.9634C0.765331 54.5849 -0.821329 66.0876 0.399695 77.4644C1.62072 88.8413 5.61219 99.7453 12.0246 109.222C18.4371 118.698 27.0749 126.458 37.1819 131.822C47.2889 137.186 58.5567 139.991 69.9989 139.99Z" fill="#242D54"/>
</svg>
